<svg xmlns="http://www.w3.org/2000/svg" viewBox="0 0 756 360" width="756" height="360" font-family="ui-monospace, SFMono-Regular, Menlo, Consolas, 'Liberation Mono', monospace" font-size="15" xml:space="preserve">
<rect width="756" height="360" fill="#000000"/>
<g shape-rendering="crispEdges">
<rect x="0" y="0" width="756" height="18" fill="#1a1a2e"/>
<rect x="0" y="18" width="9" height="18" fill="#1a1a2e"/>
<rect x="9" y="18" width="738" height="18" fill="#16213e"/>
<rect x="747" y="18" width="9" height="18" fill="#1a1a2e"/>
<rect x="0" y="36" width="9" height="18" fill="#1a1a2e"/>
<rect x="9" y="36" width="9" height="18" fill="#16213e"/>
<rect x="18" y="36" width="720" height="18" fill="#0f3460"/>
<rect x="738" y="36" width="9" height="18" fill="#16213e"/>
<rect x="747" y="36" width="9" height="18" fill="#1a1a2e"/>
<rect x="0" y="54" width="9" height="18" fill="#1a1a2e"/>
<rect x="9" y="54" width="9" height="18" fill="#16213e"/>
<rect x="18" y="54" width="720" height="18" fill="#0f3460"/>
<rect x="738" y="54" width="9" height="18" fill="#16213e"/>
<rect x="747" y="54" width="9" height="18" fill="#1a1a2e"/>
<rect x="0" y="72" width="9" height="18" fill="#1a1a2e"/>
<rect x="9" y="72" width="9" height="18" fill="#16213e"/>
<rect x="18" y="72" width="720" height="18" fill="#0f3460"/>
<rect x="738" y="72" width="9" height="18" fill="#16213e"/>
<rect x="747" y="72" width="9" height="18" fill="#1a1a2e"/>
<rect x="0" y="90" width="9" height="18" fill="#1a1a2e"/>
<rect x="9" y="90" width="9" height="18" fill="#16213e"/>
<rect x="18" y="90" width="720" height="18" fill="#0f3460"/>
<rect x="738" y="90" width="9" height="18" fill="#16213e"/>
<rect x="747" y="90" width="9" height="18" fill="#1a1a2e"/>
<rect x="0" y="108" width="9" height="18" fill="#1a1a2e"/>
<rect x="9" y="108" width="9" height="18" fill="#16213e"/>
<rect x="18" y="108" width="720" height="18" fill="#0f3460"/>
<rect x="738" y="108" width="9" height="18" fill="#16213e"/>
<rect x="747" y="108" width="9" height="18" fill="#1a1a2e"/>
<rect x="0" y="126" width="9" height="18" fill="#1a1a2e"/>
<rect x="9" y="126" width="9" height="18" fill="#16213e"/>
<rect x="18" y="126" width="720" height="18" fill="#0f3460"/>
<rect x="738" y="126" width="9" height="18" fill="#16213e"/>
<rect x="747" y="126" width="9" height="18" fill="#1a1a2e"/>
<rect x="0" y="144" width="9" height="18" fill="#1a1a2e"/>
<rect x="9" y="144" width="9" height="18" fill="#16213e"/>
<rect x="18" y="144" width="720" height="18" fill="#0f3460"/>
<rect x="738" y="144" width="9" height="18" fill="#16213e"/>
<rect x="747" y="144" width="9" height="18" fill="#1a1a2e"/>
<rect x="0" y="162" width="9" height="18" fill="#1a1a2e"/>
<rect x="9" y="162" width="9" height="18" fill="#16213e"/>
<rect x="18" y="162" width="720" height="18" fill="#0f3460"/>
<rect x="738" y="162" width="9" height="18" fill="#16213e"/>
<rect x="747" y="162" width="9" height="18" fill="#1a1a2e"/>
<rect x="0" y="180" width="9" height="18" fill="#1a1a2e"/>
<rect x="9" y="180" width="9" height="18" fill="#16213e"/>
<rect x="18" y="180" width="720" height="18" fill="#0f3460"/>
<rect x="738" y="180" width="9" height="18" fill="#16213e"/>
<rect x="747" y="180" width="9" height="18" fill="#1a1a2e"/>
<rect x="0" y="198" width="9" height="18" fill="#1a1a2e"/>
<rect x="9" y="198" width="9" height="18" fill="#16213e"/>
<rect x="18" y="198" width="720" height="18" fill="#0f3460"/>
<rect x="738" y="198" width="9" height="18" fill="#16213e"/>
<rect x="747" y="198" width="9" height="18" fill="#1a1a2e"/>
<rect x="0" y="216" width="9" height="18" fill="#1a1a2e"/>
<rect x="9" y="216" width="9" height="18" fill="#16213e"/>
<rect x="18" y="216" width="720" height="18" fill="#0f3460"/>
<rect x="738" y="216" width="9" height="18" fill="#16213e"/>
<rect x="747" y="216" width="9" height="18" fill="#1a1a2e"/>
<rect x="0" y="234" width="9" height="18" fill="#1a1a2e"/>
<rect x="9" y="234" width="9" height="18" fill="#16213e"/>
<rect x="18" y="234" width="720" height="18" fill="#0f3460"/>
<rect x="738" y="234" width="9" height="18" fill="#16213e"/>
<rect x="747" y="234" width="9" height="18" fill="#1a1a2e"/>
<rect x="0" y="252" width="9" height="18" fill="#1a1a2e"/>
<rect x="9" y="252" width="9" height="18" fill="#16213e"/>
<rect x="18" y="252" width="720" height="18" fill="#0f3460"/>
<rect x="738" y="252" width="9" height="18" fill="#16213e"/>
<rect x="747" y="252" width="9" height="18" fill="#1a1a2e"/>
<rect x="0" y="270" width="9" height="18" fill="#1a1a2e"/>
<rect x="9" y="270" width="9" height="18" fill="#16213e"/>
<rect x="18" y="270" width="720" height="18" fill="#0f3460"/>
<rect x="738" y="270" width="9" height="18" fill="#16213e"/>
<rect x="747" y="270" width="9" height="18" fill="#1a1a2e"/>
<rect x="0" y="288" width="9" height="18" fill="#1a1a2e"/>
<rect x="9" y="288" width="9" height="18" fill="#16213e"/>
<rect x="18" y="288" width="720" height="18" fill="#0f3460"/>
<rect x="738" y="288" width="9" height="18" fill="#16213e"/>
<rect x="747" y="288" width="9" height="18" fill="#1a1a2e"/>
<rect x="0" y="306" width="9" height="18" fill="#1a1a2e"/>
<rect x="9" y="306" width="9" height="18" fill="#16213e"/>
<rect x="18" y="306" width="720" height="18" fill="#0f3460"/>
<rect x="738" y="306" width="9" height="18" fill="#16213e"/>
<rect x="747" y="306" width="9" height="18" fill="#1a1a2e"/>
<rect x="0" y="324" width="9" height="18" fill="#1a1a2e"/>
<rect x="9" y="324" width="738" height="18" fill="#16213e"/>
<rect x="747" y="324" width="9" height="18" fill="#1a1a2e"/>
<rect x="0" y="342" width="756" height="18" fill="#1a1a2e"/>
</g>
<text x="9" y="32" textLength="9" lengthAdjust="spacingAndGlyphs" fill="#3c3c4d">╭</text>
<text x="18" y="32" textLength="180" lengthAdjust="spacingAndGlyphs" fill="#aaaaaa"> review: present.rs </text>
<text x="198" y="32" textLength="549" lengthAdjust="spacingAndGlyphs" fill="#3c3c4d">────────────────────────────────────────────────────────────╮</text>
<text x="9" y="50" textLength="9" lengthAdjust="spacingAndGlyphs" fill="#3c3c4d">│</text>
<text x="18" y="50" textLength="27" lengthAdjust="spacingAndGlyphs" fill="#666666"> 1 </text>
<text x="45" y="50" textLength="9" lengthAdjust="spacingAndGlyphs" fill="#3c3c4d">│</text>
<text x="63" y="50" textLength="522" lengthAdjust="spacingAndGlyphs" fill="#aaaaaa">diff --git a/src/render/present.rs b/src/render/present.rs</text>
<text x="738" y="50" textLength="9" lengthAdjust="spacingAndGlyphs" fill="#3c3c4d">│</text>
<text x="9" y="68" textLength="9" lengthAdjust="spacingAndGlyphs" fill="#3c3c4d">│</text>
<text x="18" y="68" textLength="27" lengthAdjust="spacingAndGlyphs" fill="#666666"> 2 </text>
<text x="45" y="68" textLength="9" lengthAdjust="spacingAndGlyphs" fill="#3c3c4d">│</text>
<text x="63" y="68" textLength="243" lengthAdjust="spacingAndGlyphs" fill="#eeeeee" font-weight="700">--- a/src/render/present.rs</text>
<text x="738" y="68" textLength="9" lengthAdjust="spacingAndGlyphs" fill="#3c3c4d">│</text>
<text x="9" y="86" textLength="9" lengthAdjust="spacingAndGlyphs" fill="#3c3c4d">│</text>
<text x="18" y="86" textLength="27" lengthAdjust="spacingAndGlyphs" fill="#666666"> 3 </text>
<text x="45" y="86" textLength="9" lengthAdjust="spacingAndGlyphs" fill="#3c3c4d">│</text>
<text x="63" y="86" textLength="243" lengthAdjust="spacingAndGlyphs" fill="#eeeeee" font-weight="700">+++ b/src/render/present.rs</text>
<text x="738" y="86" textLength="9" lengthAdjust="spacingAndGlyphs" fill="#3c3c4d">│</text>
<text x="9" y="104" textLength="9" lengthAdjust="spacingAndGlyphs" fill="#3c3c4d">│</text>
<text x="18" y="104" textLength="27" lengthAdjust="spacingAndGlyphs" fill="#666666"> 4 </text>
<text x="45" y="104" textLength="9" lengthAdjust="spacingAndGlyphs" fill="#3c3c4d">│</text>
<text x="63" y="104" textLength="153" lengthAdjust="spacingAndGlyphs" fill="#60a5fa">@@ -41,7 +41,7 @@</text>
<text x="216" y="104" textLength="522" lengthAdjust="spacingAndGlyphs" fill="#eeeeee"> fn emit_runs(out: &amp;mut Vec&lt;u8&gt;) {                        </text>
<text x="738" y="104" textLength="9" lengthAdjust="spacingAndGlyphs" fill="#3c3c4d">│</text>
<text x="9" y="122" textLength="9" lengthAdjust="spacingAndGlyphs" fill="#3c3c4d">│</text>
<text x="18" y="122" textLength="27" lengthAdjust="spacingAndGlyphs" fill="#666666"> 5 </text>
<text x="45" y="122" textLength="9" lengthAdjust="spacingAndGlyphs" fill="#3c3c4d">│</text>
<text x="54" y="122" textLength="684" lengthAdjust="spacingAndGlyphs" fill="#eeeeee">      for run in runs {                                                     </text>
<text x="738" y="122" textLength="9" lengthAdjust="spacingAndGlyphs" fill="#3c3c4d">│</text>
<text x="9" y="140" textLength="9" lengthAdjust="spacingAndGlyphs" fill="#3c3c4d">│</text>
<text x="18" y="140" textLength="27" lengthAdjust="spacingAndGlyphs" fill="#666666"> 6 </text>
<text x="45" y="140" textLength="9" lengthAdjust="spacingAndGlyphs" fill="#3c3c4d">│</text>
<text x="54" y="140" textLength="684" lengthAdjust="spacingAndGlyphs" fill="#eeeeee">          // Idle frames must stay free.                                    </text>
<text x="738" y="140" textLength="9" lengthAdjust="spacingAndGlyphs" fill="#3c3c4d">│</text>
<text x="9" y="158" textLength="9" lengthAdjust="spacingAndGlyphs" fill="#3c3c4d">│</text>
<text x="18" y="158" textLength="27" lengthAdjust="spacingAndGlyphs" fill="#666666"> 7 </text>
<text x="45" y="158" textLength="9" lengthAdjust="spacingAndGlyphs" fill="#3c3c4d">│</text>
<text x="63" y="158" textLength="306" lengthAdjust="spacingAndGlyphs" fill="#e74c3c">-        if run.cells.is_empty() {</text>
<text x="738" y="158" textLength="9" lengthAdjust="spacingAndGlyphs" fill="#3c3c4d">│</text>
<text x="9" y="176" textLength="9" lengthAdjust="spacingAndGlyphs" fill="#3c3c4d">│</text>
<text x="18" y="176" textLength="27" lengthAdjust="spacingAndGlyphs" fill="#666666"> 8 </text>
<text x="45" y="176" textLength="9" lengthAdjust="spacingAndGlyphs" fill="#3c3c4d">│</text>
<text x="63" y="176" textLength="252" lengthAdjust="spacingAndGlyphs" fill="#27ae60">+        if run.is_empty() {</text>
<text x="738" y="176" textLength="9" lengthAdjust="spacingAndGlyphs" fill="#3c3c4d">│</text>
<text x="9" y="194" textLength="9" lengthAdjust="spacingAndGlyphs" fill="#3c3c4d">│</text>
<text x="18" y="194" textLength="27" lengthAdjust="spacingAndGlyphs" fill="#666666"> 9 </text>
<text x="45" y="194" textLength="9" lengthAdjust="spacingAndGlyphs" fill="#3c3c4d">│</text>
<text x="54" y="194" textLength="684" lengthAdjust="spacingAndGlyphs" fill="#eeeeee">              continue;                                                     </text>
<text x="738" y="194" textLength="9" lengthAdjust="spacingAndGlyphs" fill="#3c3c4d">│</text>
<text x="9" y="212" textLength="9" lengthAdjust="spacingAndGlyphs" fill="#3c3c4d">│</text>
<text x="18" y="212" textLength="27" lengthAdjust="spacingAndGlyphs" fill="#666666">10 </text>
<text x="45" y="212" textLength="9" lengthAdjust="spacingAndGlyphs" fill="#3c3c4d">│</text>
<text x="54" y="212" textLength="684" lengthAdjust="spacingAndGlyphs" fill="#eeeeee">          }                                                                 </text>
<text x="738" y="212" textLength="9" lengthAdjust="spacingAndGlyphs" fill="#3c3c4d">│</text>
<text x="9" y="230" textLength="9" lengthAdjust="spacingAndGlyphs" fill="#3c3c4d">│</text>
<text x="18" y="230" textLength="27" lengthAdjust="spacingAndGlyphs" fill="#666666">11 </text>
<text x="45" y="230" textLength="9" lengthAdjust="spacingAndGlyphs" fill="#3c3c4d">│</text>
<text x="54" y="230" textLength="684" lengthAdjust="spacingAndGlyphs" fill="#eeeeee">          emit(run, out);                                                   </text>
<text x="738" y="230" textLength="9" lengthAdjust="spacingAndGlyphs" fill="#3c3c4d">│</text>
<text x="9" y="248" textLength="9" lengthAdjust="spacingAndGlyphs" fill="#3c3c4d">│</text>
<text x="18" y="248" textLength="27" lengthAdjust="spacingAndGlyphs" fill="#666666">12 </text>
<text x="45" y="248" textLength="9" lengthAdjust="spacingAndGlyphs" fill="#3c3c4d">│</text>
<text x="63" y="248" textLength="153" lengthAdjust="spacingAndGlyphs" fill="#60a5fa">@@ -88,4 +88,6 @@</text>
<text x="216" y="248" textLength="522" lengthAdjust="spacingAndGlyphs" fill="#eeeeee"> fn flush(out: &amp;mut Vec&lt;u8&gt;) {                            </text>
<text x="738" y="248" textLength="9" lengthAdjust="spacingAndGlyphs" fill="#3c3c4d">│</text>
<text x="9" y="266" textLength="9" lengthAdjust="spacingAndGlyphs" fill="#3c3c4d">│</text>
<text x="18" y="266" textLength="27" lengthAdjust="spacingAndGlyphs" fill="#666666">13 </text>
<text x="45" y="266" textLength="9" lengthAdjust="spacingAndGlyphs" fill="#3c3c4d">│</text>
<text x="54" y="266" textLength="684" lengthAdjust="spacingAndGlyphs" fill="#eeeeee">      term.write(out)?;                                                     </text>
<text x="738" y="266" textLength="9" lengthAdjust="spacingAndGlyphs" fill="#3c3c4d">│</text>
<text x="9" y="284" textLength="9" lengthAdjust="spacingAndGlyphs" fill="#3c3c4d">│</text>
<text x="18" y="284" textLength="27" lengthAdjust="spacingAndGlyphs" fill="#666666">14 </text>
<text x="45" y="284" textLength="9" lengthAdjust="spacingAndGlyphs" fill="#3c3c4d">│</text>
<text x="63" y="284" textLength="495" lengthAdjust="spacingAndGlyphs" fill="#27ae60">+    // One flush per frame — the damage contract&apos;s §6.</text>
<text x="738" y="284" textLength="9" lengthAdjust="spacingAndGlyphs" fill="#3c3c4d">│</text>
<text x="9" y="302" textLength="9" lengthAdjust="spacingAndGlyphs" fill="#3c3c4d">│</text>
<text x="18" y="302" textLength="27" lengthAdjust="spacingAndGlyphs" fill="#666666">15 </text>
<text x="45" y="302" textLength="9" lengthAdjust="spacingAndGlyphs" fill="#3c3c4d">│</text>
<text x="63" y="302" textLength="171" lengthAdjust="spacingAndGlyphs" fill="#27ae60">+    term.flush()?;</text>
<text x="738" y="302" textLength="9" lengthAdjust="spacingAndGlyphs" fill="#3c3c4d">│</text>
<text x="9" y="320" textLength="9" lengthAdjust="spacingAndGlyphs" fill="#3c3c4d">│</text>
<text x="18" y="320" textLength="27" lengthAdjust="spacingAndGlyphs" fill="#666666">16 </text>
<text x="45" y="320" textLength="9" lengthAdjust="spacingAndGlyphs" fill="#3c3c4d">│</text>
<text x="54" y="320" textLength="684" lengthAdjust="spacingAndGlyphs" fill="#eeeeee">  }                                                                         </text>
<text x="738" y="320" textLength="9" lengthAdjust="spacingAndGlyphs" fill="#3c3c4d">│</text>
<text x="9" y="338" textLength="738" lengthAdjust="spacingAndGlyphs" fill="#3c3c4d">╰────────────────────────────────────────────────────────────────────────────────╯</text>
</svg>
