<svg xmlns="http://www.w3.org/2000/svg" viewBox="0 0 990 540" width="990" height="540" font-family="ui-monospace, SFMono-Regular, Menlo, Consolas, 'Liberation Mono', monospace" font-size="15" xml:space="preserve">
<rect width="990" height="540" fill="#000000"/>
<g shape-rendering="crispEdges">
<rect x="0" y="0" width="990" height="18" fill="#1a1a2e"/>
<rect x="0" y="18" width="990" height="18" fill="#1a1a2e"/>
<rect x="0" y="36" width="990" height="18" fill="#1a1a2e"/>
<rect x="0" y="54" width="9" height="18" fill="#1a1a2e"/>
<rect x="9" y="54" width="639" height="18" fill="#16213e"/>
<rect x="648" y="54" width="18" height="18" fill="#1a1a2e"/>
<rect x="666" y="54" width="306" height="18" fill="#16213e"/>
<rect x="972" y="54" width="18" height="18" fill="#1a1a2e"/>
<rect x="0" y="72" width="9" height="18" fill="#1a1a2e"/>
<rect x="9" y="72" width="639" height="18" fill="#16213e"/>
<rect x="648" y="72" width="9" height="18" fill="#10101d"/>
<rect x="657" y="72" width="9" height="18" fill="#1a1a2e"/>
<rect x="666" y="72" width="306" height="18" fill="#16213e"/>
<rect x="972" y="72" width="9" height="18" fill="#10101d"/>
<rect x="981" y="72" width="9" height="18" fill="#1a1a2e"/>
<rect x="0" y="90" width="9" height="18" fill="#1a1a2e"/>
<rect x="9" y="90" width="639" height="18" fill="#16213e"/>
<rect x="648" y="90" width="9" height="18" fill="#10101d"/>
<rect x="657" y="90" width="9" height="18" fill="#1a1a2e"/>
<rect x="666" y="90" width="306" height="18" fill="#16213e"/>
<rect x="972" y="90" width="9" height="18" fill="#10101d"/>
<rect x="981" y="90" width="9" height="18" fill="#1a1a2e"/>
<rect x="0" y="108" width="9" height="18" fill="#1a1a2e"/>
<rect x="9" y="108" width="639" height="18" fill="#16213e"/>
<rect x="648" y="108" width="9" height="18" fill="#10101d"/>
<rect x="657" y="108" width="9" height="18" fill="#1a1a2e"/>
<rect x="666" y="108" width="306" height="18" fill="#16213e"/>
<rect x="972" y="108" width="9" height="18" fill="#10101d"/>
<rect x="981" y="108" width="9" height="18" fill="#1a1a2e"/>
<rect x="0" y="126" width="18" height="18" fill="#1a1a2e"/>
<rect x="18" y="126" width="639" height="18" fill="#10101d"/>
<rect x="657" y="126" width="18" height="18" fill="#1a1a2e"/>
<rect x="675" y="126" width="306" height="18" fill="#10101d"/>
<rect x="981" y="126" width="9" height="18" fill="#1a1a2e"/>
<rect x="0" y="144" width="9" height="18" fill="#1a1a2e"/>
<rect x="9" y="144" width="315" height="18" fill="#16213e"/>
<rect x="324" y="144" width="18" height="18" fill="#1a1a2e"/>
<rect x="342" y="144" width="306" height="18" fill="#16213e"/>
<rect x="648" y="144" width="18" height="18" fill="#1a1a2e"/>
<rect x="666" y="144" width="306" height="18" fill="#16213e"/>
<rect x="972" y="144" width="18" height="18" fill="#1a1a2e"/>
<rect x="0" y="162" width="9" height="18" fill="#1a1a2e"/>
<rect x="9" y="162" width="315" height="18" fill="#16213e"/>
<rect x="324" y="162" width="9" height="18" fill="#10101d"/>
<rect x="333" y="162" width="9" height="18" fill="#1a1a2e"/>
<rect x="342" y="162" width="306" height="18" fill="#16213e"/>
<rect x="648" y="162" width="9" height="18" fill="#10101d"/>
<rect x="657" y="162" width="9" height="18" fill="#1a1a2e"/>
<rect x="666" y="162" width="306" height="18" fill="#16213e"/>
<rect x="972" y="162" width="9" height="18" fill="#10101d"/>
<rect x="981" y="162" width="9" height="18" fill="#1a1a2e"/>
<rect x="0" y="180" width="9" height="18" fill="#1a1a2e"/>
<rect x="9" y="180" width="315" height="18" fill="#16213e"/>
<rect x="324" y="180" width="9" height="18" fill="#10101d"/>
<rect x="333" y="180" width="9" height="18" fill="#1a1a2e"/>
<rect x="342" y="180" width="306" height="18" fill="#16213e"/>
<rect x="648" y="180" width="9" height="18" fill="#10101d"/>
<rect x="657" y="180" width="9" height="18" fill="#1a1a2e"/>
<rect x="666" y="180" width="306" height="18" fill="#16213e"/>
<rect x="972" y="180" width="9" height="18" fill="#10101d"/>
<rect x="981" y="180" width="9" height="18" fill="#1a1a2e"/>
<rect x="0" y="198" width="9" height="18" fill="#1a1a2e"/>
<rect x="9" y="198" width="315" height="18" fill="#16213e"/>
<rect x="324" y="198" width="9" height="18" fill="#10101d"/>
<rect x="333" y="198" width="9" height="18" fill="#1a1a2e"/>
<rect x="342" y="198" width="306" height="18" fill="#16213e"/>
<rect x="648" y="198" width="9" height="18" fill="#10101d"/>
<rect x="657" y="198" width="9" height="18" fill="#1a1a2e"/>
<rect x="666" y="198" width="306" height="18" fill="#16213e"/>
<rect x="972" y="198" width="9" height="18" fill="#10101d"/>
<rect x="981" y="198" width="9" height="18" fill="#1a1a2e"/>
<rect x="0" y="216" width="18" height="18" fill="#1a1a2e"/>
<rect x="18" y="216" width="315" height="18" fill="#10101d"/>
<rect x="333" y="216" width="18" height="18" fill="#1a1a2e"/>
<rect x="351" y="216" width="306" height="18" fill="#10101d"/>
<rect x="657" y="216" width="18" height="18" fill="#1a1a2e"/>
<rect x="675" y="216" width="306" height="18" fill="#10101d"/>
<rect x="981" y="216" width="9" height="18" fill="#1a1a2e"/>
<rect x="0" y="234" width="9" height="18" fill="#1a1a2e"/>
<rect x="9" y="234" width="315" height="18" fill="#16213e"/>
<rect x="324" y="234" width="18" height="18" fill="#1a1a2e"/>
<rect x="342" y="234" width="306" height="18" fill="#16213e"/>
<rect x="648" y="234" width="18" height="18" fill="#1a1a2e"/>
<rect x="666" y="234" width="306" height="18" fill="#16213e"/>
<rect x="972" y="234" width="18" height="18" fill="#1a1a2e"/>
<rect x="0" y="252" width="9" height="18" fill="#1a1a2e"/>
<rect x="9" y="252" width="315" height="18" fill="#16213e"/>
<rect x="324" y="252" width="9" height="18" fill="#10101d"/>
<rect x="333" y="252" width="9" height="18" fill="#1a1a2e"/>
<rect x="342" y="252" width="306" height="18" fill="#16213e"/>
<rect x="648" y="252" width="9" height="18" fill="#10101d"/>
<rect x="657" y="252" width="9" height="18" fill="#1a1a2e"/>
<rect x="666" y="252" width="306" height="18" fill="#16213e"/>
<rect x="972" y="252" width="9" height="18" fill="#10101d"/>
<rect x="981" y="252" width="9" height="18" fill="#1a1a2e"/>
<rect x="0" y="270" width="9" height="18" fill="#1a1a2e"/>
<rect x="9" y="270" width="315" height="18" fill="#16213e"/>
<rect x="324" y="270" width="9" height="18" fill="#10101d"/>
<rect x="333" y="270" width="9" height="18" fill="#1a1a2e"/>
<rect x="342" y="270" width="306" height="18" fill="#16213e"/>
<rect x="648" y="270" width="9" height="18" fill="#10101d"/>
<rect x="657" y="270" width="9" height="18" fill="#1a1a2e"/>
<rect x="666" y="270" width="306" height="18" fill="#16213e"/>
<rect x="972" y="270" width="9" height="18" fill="#10101d"/>
<rect x="981" y="270" width="9" height="18" fill="#1a1a2e"/>
<rect x="0" y="288" width="9" height="18" fill="#1a1a2e"/>
<rect x="9" y="288" width="315" height="18" fill="#16213e"/>
<rect x="324" y="288" width="9" height="18" fill="#10101d"/>
<rect x="333" y="288" width="9" height="18" fill="#1a1a2e"/>
<rect x="342" y="288" width="306" height="18" fill="#16213e"/>
<rect x="648" y="288" width="9" height="18" fill="#10101d"/>
<rect x="657" y="288" width="9" height="18" fill="#1a1a2e"/>
<rect x="666" y="288" width="306" height="18" fill="#16213e"/>
<rect x="972" y="288" width="9" height="18" fill="#10101d"/>
<rect x="981" y="288" width="9" height="18" fill="#1a1a2e"/>
<rect x="0" y="306" width="18" height="18" fill="#1a1a2e"/>
<rect x="18" y="306" width="315" height="18" fill="#10101d"/>
<rect x="333" y="306" width="18" height="18" fill="#1a1a2e"/>
<rect x="351" y="306" width="306" height="18" fill="#10101d"/>
<rect x="657" y="306" width="18" height="18" fill="#1a1a2e"/>
<rect x="675" y="306" width="306" height="18" fill="#10101d"/>
<rect x="981" y="306" width="9" height="18" fill="#1a1a2e"/>
<rect x="0" y="324" width="990" height="18" fill="#1a1a2e"/>
<rect x="0" y="342" width="990" height="18" fill="#1a1a2e"/>
<rect x="0" y="360" width="990" height="18" fill="#1a1a2e"/>
<rect x="0" y="378" width="990" height="18" fill="#1a1a2e"/>
<rect x="0" y="396" width="990" height="18" fill="#1a1a2e"/>
<rect x="0" y="414" width="990" height="18" fill="#1a1a2e"/>
<rect x="0" y="432" width="990" height="18" fill="#1a1a2e"/>
<rect x="0" y="450" width="990" height="18" fill="#1a1a2e"/>
<rect x="0" y="468" width="990" height="18" fill="#1a1a2e"/>
<rect x="0" y="486" width="990" height="18" fill="#1a1a2e"/>
<rect x="0" y="504" width="990" height="18" fill="#1a1a2e"/>
<rect x="0" y="522" width="990" height="18" fill="#1a1a2e"/>
</g>
<text x="0" y="32" textLength="990" lengthAdjust="spacingAndGlyphs" fill="#eeeeee"> grid — 3 equal fr columns    (g cycles · t theme · q quit)                                                   </text>
<text x="9" y="68" textLength="9" lengthAdjust="spacingAndGlyphs" fill="#3c3c4d">╭</text>
<text x="18" y="68" textLength="171" lengthAdjust="spacingAndGlyphs" fill="#aaaaaa"> hero — col_span 2 </text>
<text x="189" y="68" textLength="459" lengthAdjust="spacingAndGlyphs" fill="#3c3c4d">──────────────────────────────────────────────────╮</text>
<text x="666" y="68" textLength="9" lengthAdjust="spacingAndGlyphs" fill="#3c3c4d">╭</text>
<text x="675" y="68" textLength="54" lengthAdjust="spacingAndGlyphs" fill="#aaaaaa"> beta </text>
<text x="729" y="68" textLength="243" lengthAdjust="spacingAndGlyphs" fill="#3c3c4d">──────────────────────────╮</text>
<text x="9" y="86" textLength="9" lengthAdjust="spacingAndGlyphs" fill="#3c3c4d">│</text>
<text x="18" y="86" textLength="306" lengthAdjust="spacingAndGlyphs" fill="#e94560">▄▄▄▄▄▄▄▄▄▄▄▄▄▄▄▄▄▄▄▄▄▄▄▄▄▄▄▄▄▄▄▄▄▄</text>
<text x="639" y="86" textLength="9" lengthAdjust="spacingAndGlyphs" fill="#3c3c4d">│</text>
<text x="666" y="86" textLength="9" lengthAdjust="spacingAndGlyphs" fill="#3c3c4d">│</text>
<text x="675" y="86" textLength="144" lengthAdjust="spacingAndGlyphs" fill="#60a5fa">▄▄▄▄▄▄▄▄▄▄▄▄▄▄▄▄</text>
<text x="963" y="86" textLength="9" lengthAdjust="spacingAndGlyphs" fill="#3c3c4d">│</text>
<text x="9" y="104" textLength="9" lengthAdjust="spacingAndGlyphs" fill="#3c3c4d">│</text>
<text x="18" y="104" textLength="54" lengthAdjust="spacingAndGlyphs" fill="#aaaaaa">cell 0</text>
<text x="639" y="104" textLength="9" lengthAdjust="spacingAndGlyphs" fill="#3c3c4d">│</text>
<text x="666" y="104" textLength="9" lengthAdjust="spacingAndGlyphs" fill="#3c3c4d">│</text>
<text x="675" y="104" textLength="54" lengthAdjust="spacingAndGlyphs" fill="#aaaaaa">cell 1</text>
<text x="963" y="104" textLength="9" lengthAdjust="spacingAndGlyphs" fill="#3c3c4d">│</text>
<text x="9" y="122" textLength="639" lengthAdjust="spacingAndGlyphs" fill="#3c3c4d">╰─────────────────────────────────────────────────────────────────────╯</text>
<text x="666" y="122" textLength="306" lengthAdjust="spacingAndGlyphs" fill="#3c3c4d">╰────────────────────────────────╯</text>
<text x="9" y="158" textLength="9" lengthAdjust="spacingAndGlyphs" fill="#3c3c4d">╭</text>
<text x="18" y="158" textLength="63" lengthAdjust="spacingAndGlyphs" fill="#aaaaaa"> gamma </text>
<text x="81" y="158" textLength="243" lengthAdjust="spacingAndGlyphs" fill="#3c3c4d">──────────────────────────╮</text>
<text x="342" y="158" textLength="9" lengthAdjust="spacingAndGlyphs" fill="#3c3c4d">╭</text>
<text x="351" y="158" textLength="63" lengthAdjust="spacingAndGlyphs" fill="#aaaaaa"> delta </text>
<text x="414" y="158" textLength="234" lengthAdjust="spacingAndGlyphs" fill="#3c3c4d">─────────────────────────╮</text>
<text x="666" y="158" textLength="9" lengthAdjust="spacingAndGlyphs" fill="#3c3c4d">╭</text>
<text x="675" y="158" textLength="63" lengthAdjust="spacingAndGlyphs" fill="#aaaaaa"> alpha </text>
<text x="738" y="158" textLength="234" lengthAdjust="spacingAndGlyphs" fill="#3c3c4d">─────────────────────────╮</text>
<text x="9" y="176" textLength="9" lengthAdjust="spacingAndGlyphs" fill="#3c3c4d">│</text>
<text x="18" y="176" textLength="144" lengthAdjust="spacingAndGlyphs" fill="#27ae60">▄▄▄▄▄▄▄▄▄▄▄▄▄▄▄▄</text>
<text x="315" y="176" textLength="9" lengthAdjust="spacingAndGlyphs" fill="#3c3c4d">│</text>
<text x="342" y="176" textLength="9" lengthAdjust="spacingAndGlyphs" fill="#3c3c4d">│</text>
<text x="351" y="176" textLength="144" lengthAdjust="spacingAndGlyphs" fill="#f39c12">▄▄▄▄▄▄▄▄▄▄▄▄▄▄▄▄</text>
<text x="639" y="176" textLength="9" lengthAdjust="spacingAndGlyphs" fill="#3c3c4d">│</text>
<text x="666" y="176" textLength="9" lengthAdjust="spacingAndGlyphs" fill="#3c3c4d">│</text>
<text x="675" y="176" textLength="144" lengthAdjust="spacingAndGlyphs" fill="#e74c3c">▄▄▄▄▄▄▄▄▄▄▄▄▄▄▄▄</text>
<text x="963" y="176" textLength="9" lengthAdjust="spacingAndGlyphs" fill="#3c3c4d">│</text>
<text x="9" y="194" textLength="9" lengthAdjust="spacingAndGlyphs" fill="#3c3c4d">│</text>
<text x="18" y="194" textLength="54" lengthAdjust="spacingAndGlyphs" fill="#aaaaaa">cell 2</text>
<text x="315" y="194" textLength="9" lengthAdjust="spacingAndGlyphs" fill="#3c3c4d">│</text>
<text x="342" y="194" textLength="9" lengthAdjust="spacingAndGlyphs" fill="#3c3c4d">│</text>
<text x="351" y="194" textLength="54" lengthAdjust="spacingAndGlyphs" fill="#aaaaaa">cell 3</text>
<text x="639" y="194" textLength="9" lengthAdjust="spacingAndGlyphs" fill="#3c3c4d">│</text>
<text x="666" y="194" textLength="9" lengthAdjust="spacingAndGlyphs" fill="#3c3c4d">│</text>
<text x="675" y="194" textLength="54" lengthAdjust="spacingAndGlyphs" fill="#aaaaaa">cell 4</text>
<text x="963" y="194" textLength="9" lengthAdjust="spacingAndGlyphs" fill="#3c3c4d">│</text>
<text x="9" y="212" textLength="315" lengthAdjust="spacingAndGlyphs" fill="#3c3c4d">╰─────────────────────────────────╯</text>
<text x="342" y="212" textLength="306" lengthAdjust="spacingAndGlyphs" fill="#3c3c4d">╰────────────────────────────────╯</text>
<text x="666" y="212" textLength="306" lengthAdjust="spacingAndGlyphs" fill="#3c3c4d">╰────────────────────────────────╯</text>
<text x="9" y="248" textLength="9" lengthAdjust="spacingAndGlyphs" fill="#3c3c4d">╭</text>
<text x="18" y="248" textLength="54" lengthAdjust="spacingAndGlyphs" fill="#aaaaaa"> beta </text>
<text x="72" y="248" textLength="252" lengthAdjust="spacingAndGlyphs" fill="#3c3c4d">───────────────────────────╮</text>
<text x="342" y="248" textLength="9" lengthAdjust="spacingAndGlyphs" fill="#3c3c4d">╭</text>
<text x="351" y="248" textLength="63" lengthAdjust="spacingAndGlyphs" fill="#aaaaaa"> gamma </text>
<text x="414" y="248" textLength="234" lengthAdjust="spacingAndGlyphs" fill="#3c3c4d">─────────────────────────╮</text>
<text x="666" y="248" textLength="9" lengthAdjust="spacingAndGlyphs" fill="#3c3c4d">╭</text>
<text x="675" y="248" textLength="63" lengthAdjust="spacingAndGlyphs" fill="#aaaaaa"> delta </text>
<text x="738" y="248" textLength="234" lengthAdjust="spacingAndGlyphs" fill="#3c3c4d">─────────────────────────╮</text>
<text x="9" y="266" textLength="9" lengthAdjust="spacingAndGlyphs" fill="#3c3c4d">│</text>
<text x="18" y="266" textLength="144" lengthAdjust="spacingAndGlyphs" fill="#a575ad">▄▄▄▄▄▄▄▄▄▄▄▄▄▄▄▄</text>
<text x="315" y="266" textLength="9" lengthAdjust="spacingAndGlyphs" fill="#3c3c4d">│</text>
<text x="342" y="266" textLength="9" lengthAdjust="spacingAndGlyphs" fill="#3c3c4d">│</text>
<text x="351" y="266" textLength="144" lengthAdjust="spacingAndGlyphs" fill="#44aaad">▄▄▄▄▄▄▄▄▄▄▄▄▄▄▄▄</text>
<text x="639" y="266" textLength="9" lengthAdjust="spacingAndGlyphs" fill="#3c3c4d">│</text>
<text x="666" y="266" textLength="9" lengthAdjust="spacingAndGlyphs" fill="#3c3c4d">│</text>
<text x="675" y="266" textLength="144" lengthAdjust="spacingAndGlyphs" fill="#ed7427">▄▄▄▄▄▄▄▄▄▄▄▄▄▄▄▄</text>
<text x="963" y="266" textLength="9" lengthAdjust="spacingAndGlyphs" fill="#3c3c4d">│</text>
<text x="9" y="284" textLength="9" lengthAdjust="spacingAndGlyphs" fill="#3c3c4d">│</text>
<text x="18" y="284" textLength="54" lengthAdjust="spacingAndGlyphs" fill="#aaaaaa">cell 5</text>
<text x="315" y="284" textLength="9" lengthAdjust="spacingAndGlyphs" fill="#3c3c4d">│</text>
<text x="342" y="284" textLength="9" lengthAdjust="spacingAndGlyphs" fill="#3c3c4d">│</text>
<text x="351" y="284" textLength="54" lengthAdjust="spacingAndGlyphs" fill="#aaaaaa">cell 6</text>
<text x="639" y="284" textLength="9" lengthAdjust="spacingAndGlyphs" fill="#3c3c4d">│</text>
<text x="666" y="284" textLength="9" lengthAdjust="spacingAndGlyphs" fill="#3c3c4d">│</text>
<text x="675" y="284" textLength="54" lengthAdjust="spacingAndGlyphs" fill="#aaaaaa">cell 7</text>
<text x="963" y="284" textLength="9" lengthAdjust="spacingAndGlyphs" fill="#3c3c4d">│</text>
<text x="9" y="302" textLength="315" lengthAdjust="spacingAndGlyphs" fill="#3c3c4d">╰─────────────────────────────────╯</text>
<text x="342" y="302" textLength="306" lengthAdjust="spacingAndGlyphs" fill="#3c3c4d">╰────────────────────────────────╯</text>
<text x="666" y="302" textLength="306" lengthAdjust="spacingAndGlyphs" fill="#3c3c4d">╰────────────────────────────────╯</text>
</svg>
